<?xml version="1.0" encoding="utf-8"?>
<!-- Generator: Adobe Illustrator 24.0.1, SVG Export Plug-In . SVG Version: 6.00 Build 0)  -->
<svg version="1.1" id="Capa_1" xmlns="http://www.w3.org/2000/svg" xmlns:xlink="http://www.w3.org/1999/xlink" x="0px" y="0px"
	 viewBox="0 0 125 48" style="enable-background:new 0 0 125 48;" xml:space="preserve">
<style type="text/css">
	.st0{fill:#CCCCCC;}
	.st1{fill:#FFFFFF;}
</style>
<path class="st0" d="M4.14,1h117.3c1.36,0,2.46,1.1,2.46,2.46v41.07c0,1.36-1.1,2.46-2.46,2.46H4.14c-1.36,0-2.46-1.1-2.46-2.46
	V3.46C1.68,2.1,2.78,1,4.14,1z"/>
<path class="st1" d="M10.72,6.26h104.32c1.36,0,2.46,1.1,2.46,2.46v30.56c0,1.36-1.1,2.46-2.46,2.46H10.72
	c-1.36,0-2.46-1.1-2.46-2.46V8.72C8.25,7.36,9.36,6.26,10.72,6.26z"/>
<path class="st0" d="M62.79,29.26c2.9,0,5.26-2.35,5.26-5.26s-2.35-5.26-5.26-5.26S57.54,21.1,57.54,24S59.89,29.26,62.79,29.26z"/>
<path class="st1" d="M62.86,27.65c2.05,0,3.71-1.66,3.71-3.71c0-2.05-1.66-3.71-3.71-3.71c-2.05,0-3.71,1.66-3.71,3.71
	C59.15,25.99,60.81,27.65,62.86,27.65z"/>
</svg>
