<?xml version="1.0" encoding="utf-8"?>
<!-- Generator: Adobe Illustrator 24.0.1, SVG Export Plug-In . SVG Version: 6.00 Build 0)  -->
<svg version="1.1" id="Capa_1" xmlns="http://www.w3.org/2000/svg" xmlns:xlink="http://www.w3.org/1999/xlink" x="0px" y="0px"
	 viewBox="0 0 125 48" style="enable-background:new 0 0 125 48;" xml:space="preserve">
<style type="text/css">
	.st0{fill:#CCCCCC;}
	.st1{fill:#FFFFFF;}
	.st2{clip-path:url(#SVGID_2_);}
	.st3{clip-path:url(#SVGID_4_);}
</style>
<path class="st0" d="M3.39,0H122.5c1.38,0,2.5,1.12,2.5,2.5v42.54c0,1.38-1.12,2.5-2.5,2.5H3.39c-1.38,0-2.5-1.12-2.5-2.5V2.5
	C0.89,1.12,2.01,0,3.39,0z"/>
<path class="st1" d="M11.06,5.51h48.38c1.38,0,2.5,1.12,2.5,2.5v31.7c0,1.38-1.12,2.5-2.5,2.5H11.06c-1.38,0-2.5-1.12-2.5-2.5V8.01
	C8.56,6.63,9.68,5.51,11.06,5.51z"/>
<path class="st1" d="M68.95,5.51h48.38c1.38,0,2.5,1.12,2.5,2.5v31.7c0,1.38-1.12,2.5-2.5,2.5H68.95c-1.38,0-2.5-1.12-2.5-2.5V8.01
	C66.45,6.63,67.57,5.51,68.95,5.51z"/>
<g>
	<defs>
		<rect id="SVGID_1_" x="29.91" y="18.52" width="10.68" height="10.68"/>
	</defs>
	<clipPath id="SVGID_2_">
		<use xlink:href="#SVGID_1_"  style="overflow:visible;"/>
	</clipPath>
	<g class="st2">
		<path class="st0" d="M35.25,29.19c2.95,0,5.34-2.39,5.34-5.34s-2.39-5.34-5.34-5.34s-5.34,2.39-5.34,5.34S32.3,29.19,35.25,29.19z
			"/>
		<path class="st1" d="M35.31,27.56c2.08,0,3.77-1.69,3.77-3.77s-1.69-3.77-3.77-3.77c-2.08,0-3.77,1.69-3.77,3.77
			S33.23,27.56,35.31,27.56z"/>
	</g>
</g>
<g>
	<defs>
		<rect id="SVGID_3_" x="87.8" y="18.52" width="10.68" height="10.68"/>
	</defs>
	<clipPath id="SVGID_4_">
		<use xlink:href="#SVGID_3_"  style="overflow:visible;"/>
	</clipPath>
	<g class="st3">
		<path class="st0" d="M93.14,29.19c2.95,0,5.34-2.39,5.34-5.34s-2.39-5.34-5.34-5.34s-5.34,2.39-5.34,5.34S90.19,29.19,93.14,29.19
			z"/>
		<path class="st1" d="M93.2,27.56c2.08,0,3.77-1.69,3.77-3.77s-1.69-3.77-3.77-3.77c-2.08,0-3.77,1.69-3.77,3.77
			S91.12,27.56,93.2,27.56z"/>
	</g>
</g>
</svg>
