<?xml version="1.0" encoding="utf-8"?>
<!-- Generator: Adobe Illustrator 24.0.1, SVG Export Plug-In . SVG Version: 6.00 Build 0)  -->
<svg version="1.1" id="Capa_1" xmlns="http://www.w3.org/2000/svg" xmlns:xlink="http://www.w3.org/1999/xlink" x="0px" y="0px"
	 viewBox="0 0 125 48" style="enable-background:new 0 0 125 48;" xml:space="preserve">
<style type="text/css">
	.st0{fill:#CCCCCC;}
	.st1{fill:#FFFFFF;}
	.st2{clip-path:url(#SVGID_2_);}
	.st3{clip-path:url(#SVGID_4_);}
	.st4{clip-path:url(#SVGID_6_);}
</style>
<path class="st0" d="M3.11,0.35h119.38c1.39,0,2.51,1.12,2.51,2.51v42.64c0,1.39-1.12,2.51-2.51,2.51H3.11
	c-1.39,0-2.51-1.12-2.51-2.51V2.86C0.6,1.47,1.73,0.35,3.11,0.35z"/>
<path class="st1" d="M7.29,5.7h31.43c1.39,0,2.51,1.12,2.51,2.51v31.9c0,1.39-1.12,2.51-2.51,2.51H7.29c-1.39,0-2.51-1.12-2.51-2.51
	V8.21C4.78,6.82,5.91,5.7,7.29,5.7z"/>
<g>
	<defs>
		<rect id="SVGID_1_" x="17.66" y="18.91" width="10.7" height="10.7"/>
	</defs>
	<clipPath id="SVGID_2_">
		<use xlink:href="#SVGID_1_"  style="overflow:visible;"/>
	</clipPath>
	<g class="st2">
		<path class="st0" d="M23.01,29.61c2.95,0,5.35-2.4,5.35-5.35s-2.4-5.35-5.35-5.35s-5.35,2.4-5.35,5.35S20.05,29.61,23.01,29.61z"
			/>
		<path class="st1" d="M23.07,27.97c2.09,0,3.78-1.69,3.78-3.78s-1.69-3.78-3.78-3.78c-2.09,0-3.78,1.69-3.78,3.78
			S20.98,27.97,23.07,27.97z"/>
	</g>
</g>
<path class="st1" d="M47.08,5.7h31.43c1.39,0,2.51,1.12,2.51,2.51v31.9c0,1.39-1.12,2.51-2.51,2.51H47.08
	c-1.39,0-2.51-1.12-2.51-2.51V8.21C44.58,6.82,45.7,5.7,47.08,5.7z"/>
<g>
	<defs>
		<rect id="SVGID_3_" x="57.45" y="18.91" width="10.7" height="10.7"/>
	</defs>
	<clipPath id="SVGID_4_">
		<use xlink:href="#SVGID_3_"  style="overflow:visible;"/>
	</clipPath>
	<g class="st3">
		<path class="st0" d="M62.8,29.61c2.95,0,5.35-2.4,5.35-5.35s-2.4-5.35-5.35-5.35s-5.35,2.4-5.35,5.35S59.85,29.61,62.8,29.61z"/>
		<path class="st1" d="M62.86,27.97c2.09,0,3.78-1.69,3.78-3.78s-1.69-3.78-3.78-3.78c-2.09,0-3.78,1.69-3.78,3.78
			S60.78,27.97,62.86,27.97z"/>
	</g>
</g>
<path class="st1" d="M86.88,5.7h31.43c1.39,0,2.51,1.12,2.51,2.51v31.9c0,1.39-1.12,2.51-2.51,2.51H86.88
	c-1.39,0-2.51-1.12-2.51-2.51V8.21C84.37,6.82,85.49,5.7,86.88,5.7z"/>
<g>
	<defs>
		<rect id="SVGID_5_" x="97.24" y="18.91" width="10.7" height="10.7"/>
	</defs>
	<clipPath id="SVGID_6_">
		<use xlink:href="#SVGID_5_"  style="overflow:visible;"/>
	</clipPath>
	<g class="st4">
		<path class="st0" d="M102.6,29.61c2.95,0,5.35-2.4,5.35-5.35s-2.4-5.35-5.35-5.35c-2.95,0-5.35,2.4-5.35,5.35
			S99.64,29.61,102.6,29.61z"/>
		<path class="st1" d="M102.66,27.97c2.09,0,3.78-1.69,3.78-3.78s-1.69-3.78-3.78-3.78c-2.09,0-3.78,1.69-3.78,3.78
			S100.57,27.97,102.66,27.97z"/>
	</g>
</g>
</svg>
