<?xml version="1.0" encoding="utf-8"?>
<!-- Generator: Adobe Illustrator 24.0.1, SVG Export Plug-In . SVG Version: 6.00 Build 0)  -->
<svg version="1.1" id="Capa_1" xmlns="http://www.w3.org/2000/svg" xmlns:xlink="http://www.w3.org/1999/xlink" x="0px" y="0px"
	 viewBox="0 0 820 1200" style="enable-background:new 0 0 820 1200;" xml:space="preserve">
<style type="text/css">
	.st0{fill:#FFFFFF;fill-opacity:0.1;}
</style>
<circle class="st0" cx="115.72" cy="112.73" r="119"/>
<circle class="st0" cx="585.72" cy="751.73" r="238"/>
<circle class="st0" cx="260.72" cy="1131.73" r="74"/>
<path class="st0" d="M597.08,94.64l9,7.93c6.21,5.48,6.81,14.96,1.33,21.17L397.15,362.31c-5.48,6.21-14.96,6.81-21.17,1.33l-9-7.93
	c-6.21-5.48-6.81-14.96-1.33-21.17L575.9,95.98C581.38,89.76,590.86,89.17,597.08,94.64z"/>
<path class="st0" d="M18.66,572.45L30,568.51c7.83-2.72,16.37,1.42,19.09,9.25l104.35,300.39c2.72,7.83-1.42,16.37-9.25,19.09
	l-11.34,3.94c-7.83,2.72-16.37-1.42-19.09-9.25L9.42,591.54C6.7,583.71,10.84,575.17,18.66,572.45z"/>
</svg>
