<?xml version="1.0" encoding="utf-8"?>
<!-- Generator: Adobe Illustrator 24.0.1, SVG Export Plug-In . SVG Version: 6.00 Build 0)  -->
<svg version="1.1" id="Capa_1" xmlns="http://www.w3.org/2000/svg" xmlns:xlink="http://www.w3.org/1999/xlink" x="0px" y="0px"
	 viewBox="0 0 1565 1096" style="enable-background:new 0 0 1565 1096;" xml:space="preserve">
<style type="text/css">
	.st0{fill-rule:evenodd;clip-rule:evenodd;fill:#FFFFFF;}
	.st1{fill:#FA71A5;}
	.st2{fill:#F2F2F2;}
	.st3{fill:#FFDC60;}
</style>
<g>
	<path class="st0" d="M20.6,76.17c0-36.5,29.59-66.09,66.1-66.09h1397.58c36.51,0,66.1,29.59,66.1,66.09v647.55
		c0,10.33-2.37,20.1-6.59,28.81v309.09c0,26.16-32.44,38.34-49.67,18.65l-175.71-200.91c-55.74-52.47-111.85-78.8-190.07-89.54H86.7
		c-36.51,0-66.1-29.59-66.1-66.09V76.17z"/>
	<path class="st1" d="M728.83,132.82h-481.6c-20.86,0-37.77,16.91-37.77,37.77c0,20.86,16.91,37.77,37.77,37.77h481.6
		c20.86,0,37.77-16.91,37.77-37.77C766.6,149.73,749.69,132.82,728.83,132.82z"/>
	<path class="st1" d="M1002.67,132.82H851.59c-20.86,0-37.77,16.91-37.77,37.77c0,20.86,16.91,37.77,37.77,37.77h151.09
		c20.86,0,37.77-16.91,37.77-37.77C1040.45,149.73,1023.54,132.82,1002.67,132.82z"/>
	<path class="st1" d="M1304.32,132.82h-178.89c-20.86,0-37.77,16.91-37.77,37.77c0,20.86,16.91,37.77,37.77,37.77h178.89
		c20.86,0,37.77-16.91,37.77-37.77C1342.09,149.73,1325.18,132.82,1304.32,132.82z"/>
	<path class="st2" d="M813.81,283.89H247.23c-20.86,0-37.77,16.91-37.77,37.77c0,20.86,16.91,37.77,37.77,37.77h566.58
		c20.86,0,37.77-16.91,37.77-37.77C851.59,300.79,834.68,283.89,813.81,283.89z"/>
	<path class="st2" d="M1201.43,283.89h-274.3c-20.86,0-37.77,16.91-37.77,37.77c0,20.86,16.91,37.77,37.77,37.77h274.3
		c20.86,0,37.77-16.91,37.77-37.77C1239.2,300.79,1222.28,283.89,1201.43,283.89z"/>
	<path class="st3" d="M322.77,425.51h-75.54c-20.86,0-37.77,16.91-37.77,37.77c0,20.85,16.91,37.77,37.77,37.77h75.54
		c20.86,0,37.77-16.91,37.77-37.77C360.55,442.42,343.64,425.51,322.77,425.51z"/>
	<path class="st3" d="M681.61,425.51H445.54c-20.86,0-37.77,16.91-37.77,37.77c0,20.85,16.91,37.77,37.77,37.77h236.07
		c20.86,0,37.77-16.91,37.77-37.77C719.38,442.42,702.47,425.51,681.61,425.51z"/>
	<path class="st3" d="M1267.08,425.51H804.37c-20.86,0-37.77,16.91-37.77,37.77c0,20.85,16.91,37.77,37.77,37.77h462.71
		c20.86,0,37.77-16.91,37.77-37.77C1304.85,442.42,1287.94,425.51,1267.08,425.51z"/>
	<path class="st2" d="M511.64,576.58H247.23c-20.86,0-37.77,16.91-37.77,37.77c0,20.86,16.91,37.77,37.77,37.77h264.41
		c20.86,0,37.77-16.91,37.77-37.77C549.41,593.49,532.5,576.58,511.64,576.58z"/>
	<path class="st2" d="M955.46,576.58H634.4c-20.86,0-37.77,16.91-37.77,37.77c0,20.86,16.91,37.77,37.77,37.77h321.06
		c20.86,0,37.77-16.91,37.77-37.77C993.23,593.49,976.32,576.58,955.46,576.58z"/>
	<path class="st2" d="M1191.54,576.58h-113.31c-20.86,0-37.77,16.91-37.77,37.77c0,20.86,16.91,37.77,37.77,37.77h113.31
		c20.86,0,37.77-16.91,37.77-37.77C1229.31,593.49,1212.4,576.58,1191.54,576.58z"/>
</g>
</svg>
