<?xml version="1.0" encoding="utf-8"?>
<!-- Generator: Adobe Illustrator 24.0.1, SVG Export Plug-In . SVG Version: 6.00 Build 0)  -->
<svg version="1.1" id="Capa_1" xmlns="http://www.w3.org/2000/svg" xmlns:xlink="http://www.w3.org/1999/xlink" x="0px" y="0px"
	 viewBox="0 0 1565 509" style="enable-background:new 0 0 1565 509;" xml:space="preserve">
<style type="text/css">
	.st0{fill:#FFFFFF;}
	.st1{fill:#F2F2F2;}
	.st2{fill:#FFEFF8;}
	.st3{fill:#FA71A5;}
</style>
<g>
	<path class="st0" d="M1449.11,17.04H110.84c-56.28,0-101.9,49.16-101.9,109.8v263.51c0,60.64,45.62,109.8,101.9,109.8h1338.26
		c56.27,0,101.89-49.16,101.89-109.8V126.84C1551,66.2,1505.38,17.04,1449.11,17.04z"/>
	<path class="st1" d="M1435.27,240.67h-859.4c-12.17,0-22.04,9.83-22.04,21.96c0,12.13,9.87,21.96,22.04,21.96h859.4
		c12.17,0,22.04-9.83,22.04-21.96C1457.31,250.5,1447.45,240.67,1435.27,240.67z"/>
	<path class="st1" d="M1119.43,306.54H575.88c-12.17,0-22.04,9.83-22.04,21.96c0,12.12,9.87,21.96,22.04,21.96h543.55
		c12.17,0,22.03-9.83,22.03-21.96C1141.46,316.38,1131.6,306.54,1119.43,306.54z"/>
	<path class="st1" d="M1298.58,174.46H582.86c-16.03,0-29.02,9.72-29.02,21.71c0,11.99,12.99,21.71,29.02,21.71h715.72
		c16.02,0,29.01-9.72,29.01-21.71C1327.59,184.18,1314.6,174.46,1298.58,174.46z"/>
	<path class="st2" d="M455.76,258.59c0,94.43-76.85,170.99-171.64,170.99c-94.79,0-171.64-76.55-171.64-170.99
		S189.32,87.61,284.12,87.61C378.91,87.61,455.76,164.16,455.76,258.59z"/>
	<path class="st3" d="M284.03,154.53c-36.66,0-66.41,29.63-66.41,66.16s29.75,66.16,66.41,66.16c36.66,0,66.41-29.63,66.41-66.16
		S320.69,154.53,284.03,154.53z M284.03,253.76c-18.68,0-33.21-14.47-33.21-33.08c0-17.92,14.53-33.08,33.21-33.08
		c17.99,0,33.2,15.16,33.2,33.08C317.24,239.29,302.02,253.76,284.03,253.76z M284.03,88.37c-94.77,0-171.56,76.49-171.56,170.9
		c0,94.41,76.79,170.9,171.56,170.9c94.77,0,171.56-76.49,171.56-170.9C455.59,164.86,378.8,88.37,284.03,88.37z M284.03,397.1
		c-34.59,0-66.41-12.41-90.62-33.08c10.38-15.85,28.36-26.88,48.42-26.88c14.53,4.14,28.36,6.2,42.2,6.2
		c13.14,0,26.98-2.07,41.51-6.2c20.06,0.69,38.04,11.03,48.42,26.88C349.75,384.69,317.93,397.1,284.03,397.1z M396.1,339.21
		c-16.6-21.36-42.89-35.84-72.64-35.84c-6.92,0-17.99,6.89-39.43,6.89c-22.14,0-33.21-6.89-40.12-6.89
		c-29.75,0-56.03,14.47-72.64,35.84c-16.6-22.05-25.6-49.62-25.6-79.94c0-75.8,61.57-137.82,138.35-137.82
		c76.09,0,138.35,62.02,138.35,137.82C422.38,289.59,412.7,317.16,396.1,339.21z"/>
</g>
</svg>
