<?xml version="1.0" encoding="utf-8"?>
<!-- Generator: Adobe Illustrator 24.0.1, SVG Export Plug-In . SVG Version: 6.00 Build 0)  -->
<svg version="1.1" id="Capa_1" xmlns="http://www.w3.org/2000/svg" xmlns:xlink="http://www.w3.org/1999/xlink" x="0px" y="0px"
	 viewBox="0 0 500 419" style="enable-background:new 0 0 500 419;" xml:space="preserve">
<style type="text/css">
	.st0{fill:#6555DF;fill-opacity:0.08;}
	.st1{fill:#5C587A;}
	.st2{fill:#6555DF;}
</style>
<path class="st0" d="M255.34,352.74C673.26,389.71,452.52,216.63,316,113.39c-64.77-48.98-213.03-89-251.19-70.17
	C-56.39,103.02-8.45,329.41,255.34,352.74z"/>
<path class="st0" d="M362.47,391.31c108.16-78.07,67.14-278.71-12.82-343.71c-138.19-112.32-202.42,0.22-263,206.19
	C54.02,355.55,254.31,469.38,362.47,391.31z"/>
<path class="st1" d="M213.84,247.38c0,2.73-2.19,4.85-4.83,4.85c-2.72,0-4.83-2.12-4.83-4.85c0-2.65,2.11-4.85,4.83-4.85
	C211.65,242.53,213.84,244.73,213.84,247.38z M225.92,208.57c0-2.65-2.19-4.85-4.83-4.85h-21.74c-2.64,0-4.83,2.2-4.83,4.85v48.52
	c0,2.65,2.19,4.85,4.83,4.85h21.74c2.64,0,4.83-2.2,4.83-4.85V208.57z M315.31,208.57c0-7.88-6.64-14.55-14.5-14.55H279.9
	c0.6-2.43,1.36-3.18,2.19-4.85c2.04-3.94,4.23-8.34,4.23-14.55c0-5.84,0-19.41-16.91-19.41c-1.28,0-2.49,0.53-3.4,1.44
	c-3.25,3.18-4.15,7.88-4.98,12.36c-0.91,4.4-1.74,8.95-4.68,11.9c-2.34,2.35-4.91,5.61-7.62,9.1c-3.32,4.4-10.57,13.42-13.36,13.65
	c-2.49,0.23-4.61,2.35-4.61,4.85v48.59c0,2.65,2.26,4.78,4.83,4.85c2.64,0.08,7.17,1.67,11.93,3.34c8.15,2.8,18.35,6.37,29.14,6.37
	h1.28h5.74c1.36,0,2.42,0,2.72,0c6.64-0.08,11.63-2.05,14.87-5.91c2.87-3.41,4.15-8.04,3.7-13.72c1.89-1.82,3.32-4.32,4.08-7.12
	c0.83-3.03,0.83-6.06,0-8.87c2.26-3.03,3.4-6.6,3.24-10.38c0-1.06-0.3-3.34-1.13-5.76C313.72,216.91,315.31,212.59,315.31,208.57z"
	/>
<path class="st2" d="M334.42,153.54c-5.34,0-19.43-13.61-19.43-19.44c0,5.83-13.6,19.44-19.43,19.44c5.83,0,19.43,13.61,19.43,19.44
	C314.98,167.14,329.07,153.54,334.42,153.54z"/>
<path class="st2" d="M343.3,183.53c-2.9,0-10.55-7.39-10.55-10.55c0,3.16-7.38,10.55-10.55,10.55c3.16,0,10.55,7.39,10.55,10.55
	C332.75,190.92,340.4,183.53,343.3,183.53z"/>
<path class="st2" d="M200.07,280.18c-5.34,0-19.43-13.61-19.43-19.44c0,5.83-13.6,19.44-19.43,19.44c5.83,0,19.43,13.61,19.43,19.44
	C180.64,293.78,194.72,280.18,200.07,280.18z"/>
<path class="st2" d="M181.19,250.18c-2.9,0-10.55-7.39-10.55-10.55c0,3.16-7.38,10.55-10.55,10.55c3.16,0,10.55,7.39,10.55,10.55
	C170.64,257.57,178.29,250.18,181.19,250.18z"/>
</svg>
