<?xml version="1.0" encoding="utf-8"?>
<!-- Generator: Adobe Illustrator 24.0.1, SVG Export Plug-In . SVG Version: 6.00 Build 0)  -->
<svg version="1.1" id="Capa_1" xmlns="http://www.w3.org/2000/svg" xmlns:xlink="http://www.w3.org/1999/xlink" x="0px" y="0px"
	 viewBox="0 0 1565 509" style="enable-background:new 0 0 1565 509;" xml:space="preserve">
<style type="text/css">
	.st0{fill:#FFFFFF;}
	.st1{fill:#F0EEFF;}
	.st2{fill:#999BA3;}
	.st3{fill:#6555DF;}
	.st4{fill:#F2F2F2;}
</style>
<g>
	<path class="st0" d="M1455.65,16.04H111.48C54.95,16.04,9.13,64.41,9.13,124.08v259.27c0,59.67,45.82,108.03,102.35,108.03h1344.17
		c56.53,0,102.35-48.37,102.35-108.03V124.08C1558,64.41,1512.18,16.04,1455.65,16.04z"/>
</g>
<path class="st1" d="M459.46,88.07H172.89c-45.22,0-81.88,38.69-81.88,86.42v151.24c0,47.73,36.66,86.42,81.88,86.42h286.58
	c45.22,0,81.88-38.69,81.88-86.42V174.49C541.34,126.76,504.68,88.07,459.46,88.07z"/>
<path class="st2" d="M684.57,210.49h-11.46l-25.96-41.4v41.4h-11.46v-60.42h11.46l25.96,41.49v-41.49h11.46V210.49z M738.72,162.61
	v47.89h-11.54v-6.05c-1.47,2.07-3.41,3.72-5.81,4.93c-2.35,1.15-4.91,1.73-7.7,1.73c-3.55,0-6.69-0.78-9.42-2.33
	c-2.73-1.61-4.88-3.95-6.47-7c-1.53-3.11-2.3-6.8-2.3-11.06v-28.09h11.46v26.36c0,3.8,0.9,6.74,2.7,8.82
	c1.8,2.02,4.26,3.03,7.37,3.03c3.17,0,5.65-1.01,7.45-3.03c1.8-2.07,2.7-5.01,2.7-8.82v-26.36H738.72z M792.2,185.51
	c0,1.73-0.11,3.28-0.33,4.67h-33.16c0.27,3.46,1.42,6.17,3.44,8.13c2.02,1.96,4.5,2.94,7.45,2.94c4.26,0,7.29-1.93,9.09-5.79h12.36
	c-1.31,4.61-3.82,8.41-7.53,11.41c-3.71,2.94-8.27,4.41-13.67,4.41c-4.37,0-8.3-1.01-11.79-3.03c-3.44-2.07-6.14-4.98-8.11-8.73
	c-1.91-3.75-2.87-8.07-2.87-12.97c0-4.96,0.96-9.31,2.87-13.05c1.91-3.75,4.58-6.63,8.02-8.64c3.44-2.02,7.4-3.03,11.87-3.03
	c4.31,0,8.16,0.98,11.55,2.94c3.44,1.96,6.09,4.75,7.94,8.38C791.25,176.73,792.2,180.85,792.2,185.51z M780.33,182.06
	c-0.05-3.11-1.12-5.59-3.19-7.43c-2.07-1.9-4.61-2.85-7.61-2.85c-2.84,0-5.24,0.92-7.21,2.77c-1.91,1.79-3.08,4.29-3.52,7.52H780.33
	z M819.48,199.34l11.46-36.73h12.2l-16.78,47.89h-13.92l-16.7-47.89h12.28L819.48,199.34z M846.64,186.38c0-4.84,0.9-9.13,2.7-12.88
	c1.86-3.75,4.34-6.63,7.45-8.64c3.16-2.02,6.69-3.03,10.56-3.03c3.38,0,6.33,0.72,8.84,2.16c2.56,1.44,4.61,3.26,6.14,5.45v-6.83
	h11.55v47.89h-11.55v-7c-1.47,2.25-3.52,4.12-6.14,5.62c-2.57,1.44-5.54,2.16-8.93,2.16c-3.82,0-7.31-1.04-10.48-3.11
	c-3.11-2.07-5.59-4.98-7.45-8.73C847.54,195.63,846.64,191.28,846.64,186.38z M882.34,186.55c0-2.94-0.54-5.45-1.64-7.52
	c-1.09-2.13-2.57-3.75-4.42-4.84c-1.86-1.15-3.85-1.73-5.98-1.73c-2.13,0-4.09,0.55-5.89,1.64c-1.8,1.09-3.28,2.71-4.42,4.84
	c-1.09,2.07-1.64,4.55-1.64,7.43c0,2.88,0.55,5.42,1.64,7.61c1.14,2.13,2.62,3.77,4.42,4.93c1.85,1.15,3.82,1.73,5.89,1.73
	c2.13,0,4.12-0.55,5.98-1.64c1.85-1.15,3.33-2.77,4.42-4.84C881.79,192.02,882.34,189.49,882.34,186.55z M922.43,211.27
	c-3.71,0-7.04-0.69-9.99-2.07c-2.95-1.44-5.3-3.37-7.04-5.79c-1.69-2.42-2.62-5.1-2.78-8.04h11.54c0.22,1.84,1.07,3.37,2.54,4.58
	c1.53,1.21,3.41,1.82,5.65,1.82c2.18,0,3.87-0.46,5.08-1.38c1.25-0.92,1.88-2.1,1.88-3.54c0-1.56-0.76-2.71-2.29-3.46
	c-1.47-0.81-3.85-1.67-7.12-2.59c-3.38-0.86-6.17-1.76-8.35-2.68c-2.13-0.92-3.99-2.33-5.57-4.24c-1.53-1.9-2.29-4.47-2.29-7.69
	c0-2.65,0.71-5.07,2.13-7.26c1.47-2.19,3.55-3.92,6.22-5.19c2.73-1.27,5.92-1.9,9.58-1.9c5.4,0,9.72,1.44,12.94,4.32
	c3.22,2.82,4.99,6.66,5.32,11.5H928.9c-0.16-1.9-0.93-3.4-2.29-4.49c-1.31-1.15-3.08-1.73-5.32-1.73c-2.07,0-3.68,0.4-4.83,1.21
	c-1.09,0.81-1.64,1.93-1.64,3.37c0,1.61,0.76,2.85,2.29,3.72c1.53,0.81,3.9,1.64,7.12,2.51c3.27,0.86,5.98,1.76,8.11,2.68
	c2.13,0.92,3.96,2.36,5.49,4.32c1.58,1.9,2.4,4.44,2.45,7.61c0,2.77-0.73,5.24-2.21,7.43c-1.42,2.19-3.49,3.92-6.22,5.19
	C929.17,210.67,926.03,211.27,922.43,211.27z M966.26,186.55c0-4.96,0.95-9.28,2.86-12.97c1.91-3.75,4.56-6.63,7.94-8.64
	c3.38-2.07,7.26-3.11,11.62-3.11c5.62,0,10.26,1.5,13.92,4.49c3.71,2.94,6.2,7.09,7.45,12.45H997.7c-0.65-2.07-1.77-3.69-3.36-4.84
	c-1.53-1.21-3.44-1.82-5.73-1.82c-3.27,0-5.87,1.27-7.78,3.8c-1.91,2.48-2.86,6.02-2.86,10.63c0,4.55,0.95,8.1,2.86,10.63
	c1.91,2.48,4.5,3.72,7.78,3.72c4.64,0,7.67-2.19,9.09-6.57h12.37c-1.26,5.19-3.74,9.31-7.45,12.36c-3.71,3.05-8.35,4.58-13.92,4.58
	c-4.37,0-8.24-1.01-11.62-3.03c-3.39-2.07-6.03-4.96-7.94-8.64C967.21,195.86,966.26,191.51,966.26,186.55z M1038.6,211.27
	c-4.37,0-8.3-1.01-11.79-3.03c-3.49-2.07-6.25-4.98-8.27-8.73c-1.97-3.75-2.95-8.07-2.95-12.97c0-4.9,1.01-9.22,3.03-12.97
	c2.07-3.75,4.88-6.63,8.43-8.64c3.55-2.07,7.51-3.11,11.87-3.11c4.37,0,8.32,1.04,11.87,3.11c3.55,2.02,6.33,4.9,8.35,8.64
	c2.07,3.75,3.11,8.07,3.11,12.97c0,4.9-1.06,9.22-3.19,12.97c-2.07,3.75-4.91,6.66-8.52,8.73
	C1047.01,210.26,1043.02,211.27,1038.6,211.27z M1038.6,200.73c2.08,0,4.01-0.52,5.81-1.56c1.86-1.09,3.33-2.71,4.42-4.84
	c1.09-2.13,1.64-4.73,1.64-7.78c0-4.55-1.15-8.04-3.44-10.46c-2.24-2.48-4.99-3.72-8.27-3.72c-3.28,0-6.03,1.24-8.27,3.72
	c-2.18,2.42-3.27,5.91-3.27,10.46c0,4.55,1.06,8.07,3.19,10.54C1032.6,199.52,1035.33,200.73,1038.6,200.73z M1127,161.92
	c5.57,0,10.04,1.82,13.43,5.45c3.44,3.57,5.16,8.59,5.16,15.04v28.09h-11.46v-26.45c0-3.75-0.9-6.6-2.7-8.56
	c-1.8-2.02-4.26-3.03-7.37-3.03c-3.11,0-5.59,1.01-7.45,3.03c-1.8,1.96-2.7,4.81-2.7,8.56v26.45h-11.46v-26.45
	c0-3.75-0.9-6.6-2.7-8.56c-1.8-2.02-4.26-3.03-7.37-3.03c-3.16,0-5.68,1.01-7.53,3.03c-1.8,1.96-2.7,4.81-2.7,8.56v26.45h-11.46
	v-47.89h11.46v5.79c1.48-2.02,3.36-3.6,5.65-4.75c2.35-1.15,4.91-1.73,7.7-1.73c3.55,0,6.71,0.81,9.5,2.42
	c2.78,1.56,4.94,3.8,6.47,6.74c1.48-2.77,3.6-4.98,6.39-6.66C1120.67,162.75,1123.73,161.92,1127,161.92z M1167.93,169.52
	c1.47-2.19,3.49-4,6.06-5.45c2.62-1.5,5.59-2.25,8.93-2.25c3.87,0,7.37,1.01,10.48,3.03c3.16,2.02,5.65,4.9,7.45,8.64
	c1.85,3.69,2.78,7.98,2.78,12.88s-0.93,9.25-2.78,13.05c-1.8,3.75-4.29,6.66-7.45,8.73c-3.11,2.07-6.6,3.11-10.48,3.11
	c-3.33,0-6.28-0.72-8.84-2.16c-2.51-1.44-4.56-3.26-6.14-5.45v29.65h-11.46v-70.7h11.46V169.52z M1191.92,186.38
	c0-2.88-0.57-5.36-1.72-7.43c-1.09-2.13-2.56-3.75-4.42-4.84c-1.8-1.09-3.77-1.64-5.9-1.64c-2.07,0-4.04,0.58-5.89,1.73
	c-1.8,1.09-3.27,2.71-4.42,4.84c-1.09,2.13-1.64,4.64-1.64,7.52c0,2.88,0.54,5.39,1.64,7.52c1.15,2.13,2.62,3.77,4.42,4.93
	c1.85,1.09,3.82,1.64,5.89,1.64c2.13,0,4.09-0.58,5.9-1.73c1.86-1.15,3.33-2.79,4.42-4.93
	C1191.35,191.85,1191.92,189.32,1191.92,186.38z M1223.42,170.04c1.48-2.54,3.38-4.52,5.73-5.96c2.4-1.44,5.13-2.16,8.19-2.16v12.71
	h-3.03c-3.6,0-6.33,0.89-8.19,2.68c-1.8,1.79-2.7,4.9-2.7,9.34v23.86h-11.46v-47.89h11.46V170.04z M1242.12,186.38
	c0-4.84,0.9-9.13,2.7-12.88c1.86-3.75,4.34-6.63,7.45-8.64c3.16-2.02,6.69-3.03,10.56-3.03c3.39,0,6.33,0.72,8.84,2.16
	c2.56,1.44,4.61,3.26,6.14,5.45v-6.83h11.54v47.89h-11.54v-7c-1.48,2.25-3.52,4.12-6.14,5.62c-2.56,1.44-5.54,2.16-8.93,2.16
	c-3.82,0-7.31-1.04-10.48-3.11c-3.11-2.07-5.59-4.98-7.45-8.73C1243.02,195.63,1242.12,191.28,1242.12,186.38z M1277.82,186.55
	c0-2.94-0.55-5.45-1.64-7.52c-1.09-2.13-2.56-3.75-4.42-4.84c-1.85-1.15-3.85-1.73-5.98-1.73c-2.13,0-4.09,0.55-5.9,1.64
	c-1.8,1.09-3.27,2.71-4.42,4.84c-1.09,2.07-1.64,4.55-1.64,7.43c0,2.88,0.55,5.42,1.64,7.61c1.15,2.13,2.62,3.77,4.42,4.93
	c1.85,1.15,3.82,1.73,5.9,1.73c2.13,0,4.12-0.55,5.98-1.64c1.86-1.15,3.33-2.77,4.42-4.84
	C1277.27,192.02,1277.82,189.49,1277.82,186.55z M1317.91,211.27c-3.71,0-7.04-0.69-9.99-2.07c-2.95-1.44-5.29-3.37-7.04-5.79
	c-1.69-2.42-2.62-5.1-2.78-8.04h11.55c0.22,1.84,1.06,3.37,2.54,4.58c1.53,1.21,3.41,1.82,5.65,1.82c2.18,0,3.87-0.46,5.08-1.38
	c1.26-0.92,1.88-2.1,1.88-3.54c0-1.56-0.76-2.71-2.29-3.46c-1.47-0.81-3.85-1.67-7.12-2.59c-3.38-0.86-6.17-1.76-8.35-2.68
	c-2.13-0.92-3.98-2.33-5.57-4.24c-1.53-1.9-2.3-4.47-2.3-7.69c0-2.65,0.71-5.07,2.13-7.26c1.47-2.19,3.55-3.92,6.22-5.19
	c2.73-1.27,5.92-1.9,9.58-1.9c5.4,0,9.72,1.44,12.94,4.32c3.22,2.82,4.99,6.66,5.32,11.5h-10.97c-0.16-1.9-0.93-3.4-2.29-4.49
	c-1.31-1.15-3.08-1.73-5.32-1.73c-2.08,0-3.69,0.4-4.83,1.21c-1.09,0.81-1.64,1.93-1.64,3.37c0,1.61,0.77,2.85,2.29,3.72
	c1.53,0.81,3.9,1.64,7.12,2.51c3.27,0.86,5.98,1.76,8.11,2.68c2.13,0.92,3.96,2.36,5.49,4.32c1.58,1.9,2.4,4.44,2.46,7.61
	c0,2.77-0.74,5.24-2.21,7.43c-1.42,2.19-3.49,3.92-6.22,5.19C1324.65,210.67,1321.51,211.27,1317.91,211.27z"/>
<path class="st3" d="M239.75,258.21h-32.24v34.93H185v-34.93h-32.24v-21.96H185v-34.93h22.52v34.93h32.24V258.21z M290.39,274.42
	c0.91,5.28,2.96,9.36,6.14,12.24c3.3,2.76,7.68,4.14,13.14,4.14c7.05,0,12.17-3.06,15.35-9.18c3.18-6.24,4.78-16.68,4.78-31.33
	c-2.61,3.84-6.31,6.84-11.09,9c-4.66,2.16-9.72,3.24-15.18,3.24c-7.28,0-13.87-1.56-19.79-4.68c-5.8-3.24-10.41-7.98-13.82-14.22
	c-3.41-6.36-5.12-14.04-5.12-23.04c0-13.32,3.75-23.88,11.26-31.69c7.51-7.92,17.74-11.88,30.7-11.88
	c16.15,0,27.52,5.46,34.12,16.38c6.71,10.92,10.06,27.36,10.06,49.33c0,15.6-1.31,28.39-3.92,38.35
	c-2.5,9.96-6.88,17.52-13.13,22.68c-6.14,5.16-14.55,7.74-25.25,7.74c-8.41,0-15.58-1.68-21.49-5.04
	c-5.91-3.48-10.46-7.98-13.65-13.5c-3.07-5.64-4.83-11.82-5.29-18.54H290.39z M308.47,242.01c5.91,0,10.58-1.92,13.99-5.76
	c3.41-3.84,5.12-9,5.12-15.48c0-7.08-1.82-12.54-5.46-16.38c-3.53-3.96-8.36-5.94-14.5-5.94c-6.14,0-11.03,2.04-14.67,6.12
	c-3.53,3.96-5.29,9.24-5.29,15.84c0,6.36,1.71,11.58,5.12,15.66C296.3,240.03,301.53,242.01,308.47,242.01z M397.17,274.42
	c0.91,5.28,2.96,9.36,6.14,12.24c3.3,2.76,7.67,4.14,13.13,4.14c7.05,0,12.17-3.06,15.35-9.18c3.18-6.24,4.78-16.68,4.78-31.33
	c-2.61,3.84-6.31,6.84-11.09,9c-4.66,2.16-9.72,3.24-15.18,3.24c-7.28,0-13.87-1.56-19.79-4.68c-5.8-3.24-10.4-7.98-13.82-14.22
	c-3.41-6.36-5.12-14.04-5.12-23.04c0-13.32,3.75-23.88,11.26-31.69c7.51-7.92,17.74-11.88,30.71-11.88
	c16.15,0,27.52,5.46,34.12,16.38c6.71,10.92,10.06,27.36,10.06,49.33c0,15.6-1.31,28.39-3.92,38.35
	c-2.5,9.96-6.88,17.52-13.13,22.68c-6.14,5.16-14.55,7.74-25.24,7.74c-8.42,0-15.58-1.68-21.49-5.04
	c-5.91-3.48-10.46-7.98-13.65-13.5c-3.07-5.64-4.83-11.82-5.29-18.54H397.17z M415.25,242.01c5.91,0,10.58-1.92,13.99-5.76
	c3.41-3.84,5.12-9,5.12-15.48c0-7.08-1.82-12.54-5.46-16.38c-3.52-3.96-8.36-5.94-14.5-5.94c-6.14,0-11.03,2.04-14.67,6.12
	c-3.52,3.96-5.29,9.24-5.29,15.84c0,6.36,1.71,11.58,5.12,15.66C403.08,240.03,408.31,242.01,415.25,242.01z"/>
<path class="st4" d="M1448.83,268.11H650.51c-11.31,0-20.47,9.68-20.47,21.61c0,11.94,9.17,21.61,20.47,21.61h798.32
	c11.31,0,20.47-9.68,20.47-21.61C1469.3,277.79,1460.13,268.11,1448.83,268.11z"/>
<path class="st4" d="M1155.43,332.95H650.51c-11.31,0-20.47,9.67-20.47,21.59c0,11.92,9.17,21.59,20.47,21.59h504.92
	c11.31,0,20.47-9.67,20.47-21.59C1175.9,342.62,1166.73,332.95,1155.43,332.95z"/>
</svg>
