<?xml version="1.0" encoding="utf-8"?>
<!-- Generator: Adobe Illustrator 24.0.1, SVG Export Plug-In . SVG Version: 6.00 Build 0)  -->
<svg version="1.1" id="Capa_1" xmlns="http://www.w3.org/2000/svg" xmlns:xlink="http://www.w3.org/1999/xlink" x="0px" y="0px"
	 viewBox="0 0 1565 972" style="enable-background:new 0 0 1565 972;" xml:space="preserve">
<style type="text/css">
	.st0{fill:#FFFFFF;}
	.st1{fill:#D6D0FF;}
	.st2{fill:#E6E6E6;}
	.st3{fill:#F2F2F2;}
	.st4{fill:#6555DF;}
	.st5{fill:#FFDC60;}
	.st6{fill:#FA71A5;}
	.st7{fill:#DBDBDB;}
</style>
<g>
	<path class="st0" d="M36.22,5.88h1492.94c17.04,0,30.85,13.81,30.85,30.85v898.64c0,17.04-13.81,30.85-30.85,30.85H36.22
		c-17.04,0-30.85-13.81-30.85-30.85V36.72C5.37,19.69,19.18,5.88,36.22,5.88z"/>
	<path class="st1" d="M114.09,88.98h1332.59c9.09,0,16.45,7.37,16.45,16.45v756.6c0,9.09-7.37,16.45-16.45,16.45H114.09
		c-9.09,0-16.45-7.37-16.45-16.45v-756.6C97.63,96.35,105,88.98,114.09,88.98z"/>
	<path class="st0" d="M171.45,230.09c0-9.09,7.36-16.45,16.45-16.45h543.74c9.09,0,16.45,7.36,16.45,16.45v511.9
		c0,9.09-7.37,16.45-16.45,16.45H187.9c-9.09,0-16.45-7.36-16.45-16.45V230.09z"/>
	<path class="st2" d="M229.12,255.19h304.44c8.92,0,16.16,7.23,16.16,16.16v0c0,8.92-7.23,16.16-16.16,16.16H229.12
		c-8.92,0-16.16-7.23-16.16-16.16v0C212.96,262.43,220.2,255.19,229.12,255.19z"/>
	<path class="st3" d="M616.63,255.19h73.78c8.92,0,16.16,7.23,16.16,16.16v0c0,8.92-7.23,16.16-16.16,16.16h-73.78
		c-8.92,0-16.16-7.23-16.16-16.16v0C600.47,262.43,607.7,255.19,616.63,255.19z"/>
	<path class="st4" d="M245.26,464.01c0-5.68,4.6-10.28,10.28-10.28h99.38c5.68,0,10.28,4.6,10.28,10.28v252.89H245.26V464.01z"/>
	<path class="st5" d="M397.49,588.66c0-5.68,4.6-10.28,10.28-10.28h99.38c5.68,0,10.28,4.6,10.28,10.28v128.23H397.49V588.66z"/>
	<path class="st6" d="M554.34,510.18c0-5.68,4.6-10.28,10.28-10.28H664c5.68,0,10.28,4.6,10.28,10.28v206.72H554.34V510.18z"/>
	<path class="st0" d="M812.67,230.09c0-9.09,7.36-16.45,16.45-16.45h543.74c9.09,0,16.45,7.36,16.45,16.45v511.9
		c0,9.09-7.37,16.45-16.45,16.45H829.12c-9.09,0-16.45-7.36-16.45-16.45V230.09z"/>
	<path class="st2" d="M870.35,255.19h304.44c8.92,0,16.16,7.23,16.16,16.16v0c0,8.92-7.23,16.16-16.16,16.16H870.35
		c-8.92,0-16.16-7.23-16.16-16.16v0C854.19,262.43,861.42,255.19,870.35,255.19z"/>
	<path class="st3" d="M1257.85,255.19h73.78c8.92,0,16.16,7.23,16.16,16.16v0c0,8.92-7.23,16.16-16.16,16.16h-73.78
		c-8.92,0-16.16-7.23-16.16-16.16v0C1241.69,262.43,1248.93,255.19,1257.85,255.19z"/>
	<path class="st4" d="M1036.22,478.97c-3.93-4.1-3.82-10.65,0.63-14.18c8.3-6.56,17.54-11.87,27.43-15.73
		c13.09-5.11,27.05-7.59,41.09-7.3c14.04,0.29,27.89,3.34,40.76,8.99c12.86,5.65,24.49,13.77,34.22,23.92
		c9.73,10.14,17.36,22.1,22.47,35.2c5.11,13.1,7.59,27.07,7.3,41.13c-0.29,14.06-3.34,27.92-8.98,40.79
		c-4.27,9.73-9.94,18.75-16.84,26.78c-3.7,4.31-10.25,4.15-14.18,0.05l-66.95-69.82L1036.22,478.97z"/>
	<path class="st6" d="M1202.52,620.07c4.52,3.44,5.42,9.92,1.65,14.17c-9.52,10.73-20.69,19.89-33.12,27.14
		c-15.39,8.97-32.39,14.82-50.04,17.22c-17.65,2.4-35.59,1.29-52.82-3.25c-17.22-4.54-33.38-12.44-47.55-23.24
		c-14.17-10.79-26.08-24.28-35.05-39.68c-8.97-15.4-14.81-32.42-17.21-50.08c-2.4-17.66-1.29-35.62,3.25-52.86
		c3.66-13.91,9.51-27.13,17.31-39.18c3.08-4.77,9.57-5.62,14.09-2.18l99.74,75.97L1202.52,620.07z"/>
	<path class="st5" d="M1019.05,662.79c-3.25,4.66-9.68,5.82-14.11,2.26c-13.12-10.54-24.44-23.16-33.52-37.39
		c-10.92-17.12-18.37-36.23-21.91-56.22c-3.54-20-3.12-40.5,1.26-60.34c4.37-19.83,12.61-38.61,24.23-55.26
		c11.62-16.65,26.41-30.84,43.52-41.78c17.11-10.93,36.19-18.38,56.18-21.93c19.98-3.55,40.47-3.12,60.29,1.26
		c16.47,3.64,32.21,9.94,46.6,18.65c4.86,2.94,5.98,9.38,2.73,14.04l-82.63,118.35L1019.05,662.79z"/>
	<ellipse class="st0" cx="1104.67" cy="547.8" rx="55.36" ry="55.4"/>
	<path class="st7" d="M1077,538.57h50.73c5.1,0,9.23,4.13,9.23,9.23l0,0c0,5.1-4.13,9.23-9.23,9.23H1077c-5.1,0-9.23-4.13-9.23-9.23
		l0,0C1067.76,542.7,1071.9,538.57,1077,538.57z"/>
</g>
</svg>
