<?xml version="1.0" encoding="utf-8"?>
<!-- Generator: Adobe Illustrator 24.0.1, SVG Export Plug-In . SVG Version: 6.00 Build 0)  -->
<svg version="1.1" id="Capa_1" xmlns="http://www.w3.org/2000/svg" xmlns:xlink="http://www.w3.org/1999/xlink" x="0px" y="0px"
	 viewBox="0 0 500 419" style="enable-background:new 0 0 500 419;" xml:space="preserve">
<style type="text/css">
	.st0{fill:#6555DF;fill-opacity:0.08;}
	.st1{fill:none;stroke:#5C587A;stroke-width:7;stroke-linejoin:round;}
	.st2{fill:#6555DF;}
</style>
<path class="st0" d="M256.34,351.74C674.26,388.71,453.52,215.63,317,112.39c-64.77-48.98-213.03-89-251.19-70.17
	C-55.39,102.02-7.45,328.41,256.34,351.74z"/>
<path class="st0" d="M363.47,390.31c108.16-78.07,67.14-278.71-12.82-343.71c-138.19-112.32-202.42,0.22-263,206.19
	C55.02,354.55,255.31,468.38,363.47,390.31z"/>
<path class="st1" d="M290.36,194.68c1.73-0.09,3.35-0.89,4.47-2.22c5.71-6.76,11.29-12.98,16.63-18.42
	c11.73-11.67,21.69-18.99,32.46-23.48c10.09-4.21,21.34-6.12,36.12-6.35c-0.28,13.93-2.43,25.42-6.78,35.86
	c-4.68,11.23-12.05,21.62-23.06,32.67c-5.44,5.34-11.67,10.91-18.43,16.62c-1.33,1.12-2.13,2.74-2.23,4.48l-1.84,34.79l-33.44,19.49
	l-3.07-3.06l7.62-24.74c0.69-2.23,0.08-4.66-1.57-6.31l-27.1-27.08c-1.65-1.65-4.07-2.25-6.3-1.56l-24.77,7.62l-3.06-3.06l19.5-33.4
	L290.36,194.68z"/>
<path class="st2" d="M277.4,261.69l-18-17.99c-167.58,103.66-187.24-109.84,0-109.84C46.95,117,85.81,386.93,277.4,261.69z"/>
</svg>
