<?xml version="1.0" encoding="utf-8"?>
<!-- Generator: Adobe Illustrator 24.0.1, SVG Export Plug-In . SVG Version: 6.00 Build 0)  -->
<svg version="1.1" id="Capa_1" xmlns="http://www.w3.org/2000/svg" xmlns:xlink="http://www.w3.org/1999/xlink" x="0px" y="0px"
	 viewBox="0 0 500 419" style="enable-background:new 0 0 500 419;" xml:space="preserve">
<style type="text/css">
	.st0{fill:#6555DF;fill-opacity:0.08;}
	.st1{fill:none;stroke:#5C587A;stroke-width:7;stroke-linejoin:round;}
	.st2{fill:#6555DF;}
</style>
<path class="st0" d="M255.34,352.74C673.26,389.71,452.52,216.63,316,113.39c-64.77-48.98-213.03-89-251.19-70.17
	C-56.39,103.02-8.45,329.41,255.34,352.74z"/>
<path class="st0" d="M362.47,391.31c108.16-78.07,67.14-278.71-12.82-343.71c-138.19-112.32-202.42,0.22-263,206.19
	C54.02,355.55,254.31,469.38,362.47,391.31z"/>
<path class="st1" d="M245.5,187.66c-12.24-54.3-55.45-74.15-24.36-3.59 M221.14,184.06l22.33-28.84l85.8,67l-29.02,8.19
	l-45.03,58.17l-71.67-55.96L221.14,184.06z"/>
<path class="st2" d="M325.9,256.83l9.1-15.16l9.55,15.16C350.46,271.08,319.98,270.62,325.9,256.83z"/>
</svg>
