<?xml version="1.0" encoding="utf-8"?>
<!-- Generator: Adobe Illustrator 24.0.1, SVG Export Plug-In . SVG Version: 6.00 Build 0)  -->
<svg version="1.1" id="Capa_1" xmlns="http://www.w3.org/2000/svg" xmlns:xlink="http://www.w3.org/1999/xlink" x="0px" y="0px"
	 viewBox="0 0 245.87 67.73" style="enable-background:new 0 0 245.87 67.73;" xml:space="preserve">
<style type="text/css">
	.st0{fill:#FFFFFF;}
	.st1{opacity:0.7;}
	.st2{fill:#6555DF;}
	.st3{fill:#FFDC60;}
	.st4{fill:#FA71A5;}
	.st5{opacity:0.7;fill:none;stroke:#FDC2B0;stroke-width:3;stroke-linecap:round;stroke-miterlimit:10;enable-background:new    ;}
</style>
<title>logo-nombre.2svg</title>
<path class="st0" d="M71.56,16.99c-0.16,2.05,1.38,3.84,3.43,3.99c0.06,0,0.13,0.01,0.19,0.01c0.66-0.01,1.31-0.22,1.85-0.6
	c-0.74-0.49-1.21-1.29-1.27-2.18c0.01-3.06,6.27-5.82,6.27-5.82c-2.29,7.15-6.91,18-9.84,22.91c-0.81-1.45-1.23-3.09-1.22-4.75
	c-0.04-1.41,0.34-2.81,1.11-4c-0.51-0.18-1.05-0.27-1.59-0.28c-3.29,0-6.46,3.41-6.46,8.12c0.09,3.28,1.34,6.42,3.51,8.88
	c-1.59,2.3-3.29,3.64-5.32,3.64c-0.47,0-0.94-0.08-1.38-0.23v0.12c0,4.86,4.42,7.37,8.67,7.37c2.93,0,5.69-1.17,7-3.57
	c0.48-0.68,0.91-1.39,1.28-2.13c2.78,1.09,5.74,1.66,8.73,1.68c14.73,0,23.25-15.31,23.25-28c0-9.11-4.37-16.88-13.94-16.88h-1
	c0.53-1.79,1.22-2.18,1.75-2.18c0.25,0,0.5,0.07,0.7,0.22V3.08c0-1.85-2.72-3.08-5.64-3.08c-2.35-0.12-4.62,0.87-6.12,2.68
	C84.71,3.9,84.07,5.22,83.6,6.6c-7,1.84-11.75,5.81-12.13,9.89L71.56,16.99z M92.9,9.99c0.31-0.07,0.63-0.1,0.95-0.11
	c3.62,0,5.27,4.08,5.27,9.27c0,9.45-5.48,22.86-14.58,22.86c-1.2-0.03-2.39-0.27-3.51-0.71c4.52-10.23,8.49-20.69,11.87-31.35
	L92.9,9.99z M126.47,40.28c-0.08,0.72-0.11,1.45-0.1,2.18c0,2.85,0.74,5,3,5.7c0.34,0.11,0.7,0.16,1.06,0.16
	c5.59,0,15.8-11,17.66-13.91l-3-1.12c-1.76,2.52-7.61,7.21-9.21,7.49h-0.16c-0.64,0-0.9-0.56-0.9-1.45c0-3.75,4.57-13.69,5.1-15.09
	c-0.26-1.51-2.28-2.57-4.41-2.57c-1.83-0.08-3.54,0.93-4.36,2.57c-0.22,0.67-0.59,1.62-1,2.79c-2-2.68-4.26-3.8-6.65-3.8
	c-4.47,0-9.1,4.08-11.39,9.17c-1.24,2.49-1.92,5.22-2,8c0,4.47,2.29,7.32,5.64,7.32c3.01-0.05,6.84-2.33,10.72-7.48V40.28z
	 M120.3,38.15c-0.11-0.4-0.16-0.81-0.16-1.23c0-3.57,3.36-8.77,6.49-8.77c1.04,0.02,2.02,0.54,2.61,1.4
	c-0.58,1.67-1.17,3.52-1.7,5.42c-1.86,2-4.42,4.19-6,4.19c-0.62,0.03-1.16-0.43-1.24-1.05L120.3,38.15z M150.57,47.65
	c0.63-4.49,2.03-8.84,4.15-12.85c1.92-2.4,5.64-5.31,7.13-5.53h0.11c0.32,0,0.42,0.22,0.42,0.61c0,2-3.56,8.89-3.56,13.69
	c0,2.18,0.74,3.92,2.87,4.59c0.22,0.05,0.43,0.11,0.69,0.16c0.4,0.1,0.82,0.14,1.23,0.12c6.75,0,16-11.12,17.82-14l-3-1.12
	c-0.85,1.23-7.66,8.78-9.9,8.78c-0.19,0.02-0.37-0.07-0.48-0.23c-0.11-0.14-0.17-0.32-0.16-0.5c0-2.18,3.62-9,3.62-13.58
	c0-2-0.69-3.46-2.66-3.91c-0.47-0.11-0.96-0.17-1.44-0.17c-3.51,0-7.82,2.46-10.42,4.81c0.31-1.29,0.91-2.5,1.75-3.52
	c-0.53-1.46-2.66-2.41-5-2.41c-2.06-0.1-4.04,0.8-5.32,2.41c-2.34,6.81-4.89,11.12-6.44,16.2c-0.21,0.78-0.32,1.59-0.31,2.4
	c0,1.9,0.63,3.8,2.44,4.42c0.83,0.27,1.69,0.4,2.56,0.39c1.34-0.04,2.66-0.31,3.9-0.8L150.57,47.65z M180.15,67.77
	c7.66,0,13-7.26,17.19-16.09c8.08-1.29,15.58-11.72,19.15-17.29l-3.3-0.95c-0.11,0.11-8.19,10.06-13.19,12
	c3.56-9.1,5.74-16.7,8.45-20.28c-0.53-2.24-3.08-3.52-5.63-3.52c-2.4,0-4.85,1.12-5.7,3.52l-0.48,1.68
	c-1.43-2.21-3.86-3.57-6.49-3.64c-4.52,0-9.15,4.08-11.43,9.17c-1.24,2.49-1.93,5.22-2,8c0,4.47,2.28,7.26,5.64,7.26
	c2.66,0,5.95-1.73,9.41-5.81c-0.5,1.6-1.08,3.18-1.74,4.73c-11.86,2.13-16.49,9-16.49,14.31c0,3.57,2.08,6.48,5.37,6.81
	L180.15,67.77z M181.8,61.77c-0.84-0.01-1.51-0.7-1.5-1.54c0-0.04,0-0.09,0.01-0.13c0-3.64,8.73-6.32,8.73-6.32
	c-3.14,6.07-5.7,7.97-7.24,7.97V61.77z M188.13,39.14c-0.9,0-1.38-0.95-1.38-2.24c0-3.57,3.35-8.77,6.49-8.77
	c1.05,0.05,2.01,0.59,2.61,1.45l-1.65,5.31c-1.87,1.94-4.47,4.23-6.07,4.23V39.14z M231.83,43.89c5-0.62,9.68-4.3,14-9.56
	l-2.77-1.17c-1.65,2.35-6.27,6.54-9,6.93c1.25-2.52,1.93-5.29,2-8.1c0-5.7-3.72-8.78-7.66-8.78c-1.73,0.02-3.41,0.61-4.78,1.68
	c-0.68-0.34-1.43-0.51-2.19-0.5c-2.87,0-6.22,2.4-8.29,8.16c-0.65,1.88-0.99,3.85-1,5.84c0,3.91,1.65,7.54,6.33,9.16
	c1.08,0.35,2.21,0.52,3.35,0.5c3.57-0.05,7.88-1.44,10.01-4.18V43.89z M224.16,30.76c1.23-2.46,2.72-3.58,3.84-3.58
	s1.8,0.95,1.8,2.79c0,2.13-1.06,5.48-3.93,9.84c-1.81-0.22-2.66-2.35-2.66-4.75c-0.02-1.49,0.3-2.97,0.95-4.32V30.76z M220.16,43.95
	c-0.74-0.45-1-1.57-1-2.91c0.02-1.45,0.29-2.89,0.8-4.25c0.2,2.47,1.56,4.7,3.67,6c-0.45,0.86-1.32,1.41-2.29,1.45
	c-0.43-0.01-0.84-0.11-1.22-0.31L220.16,43.95z"/>
<g class="st1">
	<circle class="st2" cx="12.65" cy="12.65" r="12.65"/>
</g>
<g class="st1">
	<circle class="st3" cx="25.18" cy="24.33" r="12.65"/>
</g>
<g class="st1">
	<circle class="st4" cx="37.7" cy="36" r="12.65"/>
</g>
<line class="st5" x1="46.91" y1="44.48" x2="57.03" y2="54.12"/>
</svg>
