<svg id="Capa_1" data-name="Capa 1" xmlns="http://www.w3.org/2000/svg" viewBox="0 0 245.87 67.73"><defs><style>.cls-1{fill:#6555df;}.cls-2,.cls-5{opacity:0.7;}.cls-3{fill:#ffdc60;}.cls-4{fill:#fa71a5;}.cls-5{fill:none;stroke:#fdc2b0;stroke-linecap:round;stroke-miterlimit:10;stroke-width:3px;isolation:isolate;}</style></defs><title>logo-nombre.2svg</title><path class="cls-1" d="M73.53,18.6a3.72,3.72,0,0,0,3.62,4A3.37,3.37,0,0,0,79,22a2.82,2.82,0,0,1-1.27-2.18C77.74,16.76,84,14,84,14c-2.29,7.15-6.91,18-9.84,22.91a9.65,9.65,0,0,1-1.22-4.75,7,7,0,0,1,1.11-4,5.22,5.22,0,0,0-1.59-.28C69.17,27.88,66,31.29,66,36a14,14,0,0,0,3.51,8.88c-1.59,2.3-3.29,3.64-5.32,3.64a4.15,4.15,0,0,1-1.38-.23v.12c0,4.86,4.42,7.37,8.67,7.37,2.93,0,5.69-1.17,7-3.57a16,16,0,0,0,1.28-2.13,24.54,24.54,0,0,0,8.73,1.68c14.73,0,23.25-15.31,23.25-28,0-9.11-4.37-16.88-13.94-16.88h-1c.53-1.79,1.22-2.18,1.75-2.18a1.18,1.18,0,0,1,.7.22V4.69c0-1.85-2.72-3.08-5.64-3.08a7.46,7.46,0,0,0-6.12,2.68,16.77,16.77,0,0,0-1.92,3.92c-7,1.84-11.75,5.81-12.13,9.89Zm21.34-7a5.23,5.23,0,0,1,.95-.11c3.62,0,5.27,4.08,5.27,9.27,0,9.45-5.48,22.86-14.58,22.86A10.21,10.21,0,0,1,83,42.91,307.28,307.28,0,0,0,94.87,11.56Zm33.57,30.29a16.73,16.73,0,0,0-.1,2.18c0,2.85.74,5,3,5.7a3.32,3.32,0,0,0,1.06.16c5.59,0,15.8-11,17.66-13.91l-3-1.12c-1.76,2.52-7.61,7.21-9.21,7.49h-.16c-.64,0-.9-.56-.9-1.45,0-3.75,4.57-13.69,5.1-15.09-.26-1.51-2.28-2.57-4.41-2.57a4.66,4.66,0,0,0-4.36,2.57c-.22.67-.59,1.62-1,2.79-2-2.68-4.26-3.8-6.65-3.8-4.47,0-9.1,4.08-11.39,9.17a19.21,19.21,0,0,0-2,8c0,4.47,2.29,7.32,5.64,7.32C120.73,49.28,124.56,47,128.44,41.85Zm-6.17-2.13a4.81,4.81,0,0,1-.16-1.23c0-3.57,3.36-8.77,6.49-8.77a3.25,3.25,0,0,1,2.61,1.4c-.58,1.67-1.17,3.52-1.7,5.42-1.86,2-4.42,4.19-6,4.19A1.2,1.2,0,0,1,122.27,39.72Zm30.27,9.5a39,39,0,0,1,4.15-12.85c1.92-2.4,5.64-5.31,7.13-5.53h.11c.32,0,.42.22.42.61,0,2-3.56,8.89-3.56,13.69,0,2.18.74,3.92,2.87,4.59.22.05.43.11.69.16a4.12,4.12,0,0,0,1.23.12c6.75,0,16-11.12,17.82-14l-3-1.12c-.85,1.23-7.66,8.78-9.9,8.78a.52.52,0,0,1-.48-.23.73.73,0,0,1-.16-.5c0-2.18,3.62-9,3.62-13.58,0-2-.69-3.46-2.66-3.91a6.44,6.44,0,0,0-1.44-.17c-3.51,0-7.82,2.46-10.42,4.81a8.72,8.72,0,0,1,1.75-3.52c-.53-1.46-2.66-2.41-5-2.41a6.4,6.4,0,0,0-5.32,2.41c-2.34,6.81-4.89,11.12-6.44,16.2a8.87,8.87,0,0,0-.31,2.4c0,1.9.63,3.8,2.44,4.42a7.87,7.87,0,0,0,2.56.39A11.46,11.46,0,0,0,152.54,49.22Zm29.58,20.12c7.66,0,13-7.26,17.19-16.09C207.39,52,214.89,41.57,218.46,36l-3.3-.95c-.11.11-8.19,10.06-13.19,12,3.56-9.1,5.74-16.7,8.45-20.28-.53-2.24-3.08-3.52-5.63-3.52-2.4,0-4.85,1.12-5.7,3.52l-.48,1.68a8,8,0,0,0-6.49-3.64c-4.52,0-9.15,4.08-11.43,9.17a19.06,19.06,0,0,0-2,8c0,4.47,2.28,7.26,5.64,7.26,2.66,0,5.95-1.73,9.41-5.81A50.67,50.67,0,0,1,192,48.16c-11.86,2.13-16.49,9-16.49,14.31,0,3.57,2.08,6.48,5.37,6.81Zm1.65-6a1.52,1.52,0,0,1-1.49-1.67c0-3.64,8.73-6.32,8.73-6.32C187.87,61.46,185.31,63.36,183.77,63.36Zm6.33-22.63c-.9,0-1.38-.95-1.38-2.24,0-3.57,3.35-8.77,6.49-8.77a3.36,3.36,0,0,1,2.61,1.45l-1.65,5.31C194.3,38.44,191.7,40.73,190.1,40.73Zm43.7,4.75c5-.62,9.68-4.3,14-9.56l-2.77-1.17c-1.65,2.35-6.27,6.54-9,6.93a19.26,19.26,0,0,0,2-8.1c0-5.7-3.72-8.78-7.66-8.78a7.91,7.91,0,0,0-4.78,1.68,4.82,4.82,0,0,0-2.19-.5c-2.87,0-6.22,2.4-8.29,8.16A18,18,0,0,0,214.11,40c0,3.91,1.65,7.54,6.33,9.16a10.26,10.26,0,0,0,3.35.5C227.36,49.61,231.67,48.22,233.8,45.48Zm-7.67-13.13c1.23-2.46,2.72-3.58,3.84-3.58s1.8.95,1.8,2.79c0,2.13-1.06,5.48-3.93,9.84-1.81-.22-2.66-2.35-2.66-4.75A9.69,9.69,0,0,1,226.13,32.35Zm-4,13.19c-.74-.45-1-1.57-1-2.91a12.48,12.48,0,0,1,.8-4.25,7.79,7.79,0,0,0,3.67,6,2.7,2.7,0,0,1-2.29,1.45A2.75,2.75,0,0,1,222.09,45.54Z" transform="translate(-1.97 -1.61)"/><g class="cls-2"><circle class="cls-1" cx="12.65" cy="12.65" r="12.65"/></g><g class="cls-2"><circle class="cls-3" cx="25.18" cy="24.33" r="12.65"/></g><g class="cls-2"><circle class="cls-4" cx="37.7" cy="36" r="12.65"/></g><line class="cls-5" x1="46.91" y1="44.48" x2="57.03" y2="54.12"/></svg>