<?xml version="1.0" encoding="utf-8"?>
<!-- Generator: Adobe Illustrator 24.0.1, SVG Export Plug-In . SVG Version: 6.00 Build 0)  -->
<svg version="1.1" id="Capa_1" xmlns="http://www.w3.org/2000/svg" xmlns:xlink="http://www.w3.org/1999/xlink" x="0px" y="0px"
	 viewBox="0 0 49 48" style="enable-background:new 0 0 49 48;" xml:space="preserve">
<style type="text/css">
	.st0{fill-rule:evenodd;clip-rule:evenodd;fill:#5C587A;}
</style>
<path class="st0" d="M24.13,0c-13.25,0-24,10.75-24,24s10.75,24,24,24s24-10.75,24-24S37.37,0,24.13,0z M25.35,19.18
	c0-3.96-3.24-7.2-7.2-7.2c-3.96,0-7.2,3.24-7.2,7.2c0,3.96,3.24,7.2,7.2,7.2C22.11,26.38,25.35,23.14,25.35,19.18z M18.15,21.58
	c-1.32,0-2.4-1.08-2.4-2.4s1.08-2.4,2.4-2.4c1.32,0,2.4,1.08,2.4,2.4S19.47,21.58,18.15,21.58z M38.55,21.58
	c0,2.66-2.14,4.8-4.8,4.8c-2.66,0-4.8-2.14-4.8-4.8c-0.02-2.66,2.14-4.8,4.8-4.8C36.41,16.78,38.55,18.91,38.55,21.58z M18.15,33.6
	c-3.34,0-7.15,1.37-8.78,2.66c3.29,3.96,8.14,6.55,13.58,6.86v-6.67c0-4.54,7.15-6.48,10.8-6.48c2.11,0,5.38,0.67,7.78,2.09
	c1.15-2.47,1.8-5.21,1.8-8.09c0-10.58-8.62-19.2-19.2-19.2c-10.58,0-19.2,8.62-19.2,19.2c0,2.95,0.67,5.74,1.87,8.23
	c3.22-2.35,8.23-3.43,11.35-3.43c1.06,0,2.33,0.14,3.67,0.38c-1.51,1.37-2.54,2.93-3.12,4.46c-0.1,0-0.2-0.01-0.29-0.01
	C18.32,33.61,18.23,33.6,18.15,33.6z"/>
</svg>
