<?xml version="1.0" encoding="utf-8"?>
<!-- Generator: Adobe Illustrator 24.0.1, SVG Export Plug-In . SVG Version: 6.00 Build 0)  -->
<svg version="1.1" id="Capa_1" xmlns="http://www.w3.org/2000/svg" xmlns:xlink="http://www.w3.org/1999/xlink" x="0px" y="0px"
	 viewBox="0 0 500 419" style="enable-background:new 0 0 500 419;" xml:space="preserve">
<style type="text/css">
	.st0{fill:#6555DF;fill-opacity:0.05;}
	.st1{fill:#FFB987;fill-opacity:0.5;}
	.st2{fill:#FEA1C4;fill-opacity:0.65;}
	.st3{fill:#FFDC60;fill-opacity:0.65;}
</style>
<g>
	<path class="st0" d="M255.64,352.7c417.92,36.97,197.19-136.11,60.66-239.36c-64.77-48.98-213.03-89-251.19-70.17
		C-56.1,102.98-8.15,329.37,255.64,352.7z"/>
	<path class="st0" d="M362.77,391.27c108.16-78.07,67.14-278.71-12.82-343.71c-138.19-112.32-202.42,0.22-263,206.19
		C54.31,355.51,254.61,469.34,362.77,391.27z"/>
	<path class="st1" d="M329.43,300.01l7.63-7.63l29.91,29.92c2.11,2.11,2.11,5.53,0,7.63c-2.11,2.11-5.52,2.11-7.63,0L329.43,300.01z
		"/>
	<path class="st1" d="M135.43,109.52c-2.11-2.11-2.11-5.53,0-7.63c2.11-2.11,5.52-2.11,7.63,0l29.91,29.92l-7.63,7.63L135.43,109.52
		z"/>
	<ellipse class="st2" cx="284.47" cy="249.2" rx="68.33" ry="68.37"/>
	<ellipse class="st3" cx="216.14" cy="180.83" rx="68.33" ry="68.37"/>
</g>
</svg>
